HIERARCHY
ROOT Hips
{
	OFFSET 0.00000 0.00000 0.00000
	CHANNELS 6 Xposition Yposition Zposition Yrotation Zrotation Xrotation 
	JOINT Lumbar
	{
		OFFSET 0 0 0
		CHANNELS 3 Zrotation Xrotation Yrotation
		JOINT Neck
		{
			OFFSET 0.00 0.2701 0.00
			CHANNELS 3 Zrotation Xrotation Yrotation
			End Site
			{
				OFFSET 0.00 0.1379 0.00
			}
		}
		JOINT RightShoulder
		{
			OFFSET 0.0119 0.2289 0.1181
			CHANNELS 3 Zrotation Xrotation Yrotation
			JOINT RightElbow
			{
				OFFSET 0.00 -0.1475 0.00
				CHANNELS 2 Zrotation Yrotation
				JOINT RightWrist
				{
					OFFSET 0.00 -0.1605 0.00
					CHANNELS 2 Zrotation Xrotation
					End Site
					{
						OFFSET 0.0040 -0.1068 0.0006
					}
				}
			}
		}
		JOINT LeftShoulder
		{
			OFFSET 0.0119 0.2289 -0.1181
			CHANNELS 3 Zrotation Xrotation Yrotation
			JOINT LeftElbow
			{
				OFFSET 0.00 -0.1475 0.00
				CHANNELS 2 Zrotation Yrotation
				JOINT LeftWrist
				{
					OFFSET 0.00 -0.1605 0.00
					CHANNELS 2 Zrotation Xrotation
					End Site
					{
						OFFSET 0.0040 -0.1068 -0.0006
					}
				}
			}
		}
	}
	JOINT RightHip
	{
		OFFSET 0.0316 -0.0424 0.0458
		CHANNELS 3 Zrotation Xrotation Yrotation
		JOINT RightKnee
		{
			OFFSET 0.00 -0.2438 0.00
			CHANNELS 1 Zrotation
			JOINT RightAnkle
			{
				OFFSET 0.00 -0.2449 0.00
				CHANNELS 3 Zrotation Xrotation Yrotation
				End Site
				{
					OFFSET 0.1237 -0.0542 0.0051
				}
			}
		}
	}
	JOINT LeftHip
	{
		OFFSET 0.0316 -0.0424 -0.0458
		CHANNELS 3 Zrotation Xrotation Yrotation
		JOINT LeftKnee
		{
			OFFSET 0.00 -0.2438 0.00
			CHANNELS 1 Zrotation
			JOINT LeftAnkle
			{
				OFFSET 0.00 -0.2449 0.00
				CHANNELS 3 Zrotation Xrotation Yrotation
				End Site
				{
					OFFSET 0.1237 -0.0542 -0.0051
				}
			}
		}
	}
}
MOTION
Frames: 21
Frame Time: 0.02
-0.26843 -0.67156 0.10419 51.18388 53.91458 -28.7335 27.99757 5.85618 -15.31978 -52.36702 9.42593 -2.11994 -62.56691 16.21442 -59.47446 134.30114 54.05374 82.84915 -21.87619 -62.56687 -13.9055 71.10726 134.30117 -52.7916 82.78857 21.54699 78.39286 5.72949 -32.38257 -57.47561 -18.19744 -2.28769 -3.92423 47.09953 -7.04217 -4.03658 -0.39673 -49.86622 -32.36547 11.31136
-0.26866 -0.67148 0.10411 51.40755 54.11923 -29.08756 27.62465 5.55441 -15.39929 -52.26656 9.29496 -2.11994 -62.56691 16.21487 -59.00669 134.30115 53.85129 82.84913 -21.87585 -62.56687 -14.35538 70.32785 134.30117 -53.10892 82.88658 21.98316 77.9039 5.8379 -32.50135 -57.14089 -18.24344 -2.28709 -3.92642 46.82126 -6.92537 -3.84034 -0.39446 -49.85183 -32.31342 11.32412
-0.26885 -0.67139 0.10408 51.68214 54.34773 -29.45807 27.22291 5.21082 -15.52221 -52.17979 9.11781 -2.11994 -62.56691 16.21411 -58.52086 134.30115 53.30675 82.84911 -21.87552 -62.56687 -14.82443 69.11712 134.3012 -52.8304 82.8308 21.75144 77.37959 5.94347 -32.61786 -56.73081 -18.30724 -2.28065 -3.92646 46.50872 -6.81322 -3.54196 -0.39191 -49.82136 -32.19759 11.31449
-0.26906 -0.67131 0.10403 51.9241 54.56359 -29.81286 26.83797 4.88767 -15.62475 -52.08426 8.96204 -2.11994 -62.56691 16.21441 -58.0385 134.30116 52.92661 82.8491 -21.87519 -62.56688 -15.27287 68.11833 134.30119 -52.87233 82.84766 21.84197 76.87851 6.05195 -32.73281 -56.36126 -18.36144 -2.27704 -3.9275 46.21651 -6.69676 -3.29405 -0.38951 -49.79771 -32.10838 11.31492
-0.26926 -0.67121 0.10399 52.20641 54.78837 -30.20247 26.43505 4.55789 -15.73091 -52.00015 8.80348 -2.11994 -62.5669 16.21624 -57.5727 134.30116 52.51508 82.84908 -21.87487 -62.56688 -15.77662 67.06171 134.3012 -52.72916 82.85216 21.87508 76.34386 6.15506 -32.85841 -55.96257 -18.4216 -2.2728 -3.9285 45.90295 -6.5888 -3.02864 -0.38699 -49.77546 -32.02609 11.31568
-0.26947 -0.67114 0.10394 52.4164 54.99976 -30.52326 26.06397 4.23232 -15.83932 -51.89514 8.64037 -2.11994 -62.5669 16.21 -57.06845 134.30117 52.08485 82.84906 -21.87449 -62.56688 -16.16811 66.0205 134.3012 -52.82117 82.84598 21.86046 75.87174 6.26781 -32.96225 -55.60752 -18.47372 -2.26847 -3.92906 45.62626 -6.46458 -2.77564 -0.38466 -49.7469 -31.91615 11.3107
-0.26972 -0.67114 0.10382 52.41709 55.16782 -30.65207 25.78387 3.92722 -15.94543 -51.72996 8.47388 -2.11994 -62.5669 16.22025 -56.47465 134.30117 51.69068 82.84904 -21.87403 -62.56689 -16.24066 65.11498 134.3012 -53.69833 82.85039 21.88226 75.58462 6.41178 -32.99585 -55.39338 -18.4993 -2.26483 -3.92865 45.45934 -6.29378 -2.58133 -0.38295 -49.70267 -31.73628 11.29278
-0.26997 -0.67115 0.1037 52.34256 55.32142 -30.71047 25.53796 3.62817 -16.05175 -51.54296 8.30491 -2.11994 -62.5669 16.21464 -55.84124 134.30118 51.2873 82.849 -21.87328 -62.56689 -16.19956 64.2407 134.3012 -54.82913 82.84904 21.87511 75.36159 6.56472 -33.0094 -55.22578 -18.51625 -2.26138 -3.92789 45.33106 -6.10666 -2.40336 -0.38146 -49.65311 -31.53277 11.27021
-0.27022 -0.67113 0.10358 52.30083 55.48186 -30.80005 25.2791 3.32725 -16.15659 -51.36534 8.13867 -2.11994 -62.5669 16.19187 -55.2185 134.30118 50.88541 82.84898 -21.87286 -62.56689 -16.21256 63.3587 134.3012 -55.8492 82.84888 21.87518 75.10714 6.71076 -33.03925 -55.03604 -18.53716 -2.25815 -3.92746 45.18541 -5.92746 -2.21814 -0.37987 -49.60751 -31.3465 11.2516
-0.27049 -0.67119 0.10344 52.26741 55.64228 -30.89458 25.0077 3.02093 -16.26909 -51.19068 7.96421 -2.11994 -62.5669 16.27448 -54.62564 134.30118 50.48553 82.84895 -21.87243 -62.56689 -16.21614 62.43435 134.30119 -56.83754 82.8494 21.87773 74.86055 6.86841 -33.03928 -54.8479 -18.55844 -2.25342 -3.92627 45.03732 -5.74626 -2.02799 -0.37826 -49.55489 -31.13071 11.22493
-0.27072 -0.67111 0.10335 52.19727 55.79866 -30.96068 24.77165 2.72808 -16.36476 -51.00423 7.80665 -2.11994 -62.56689 16.13067 -53.96185 134.30118 50.08065 82.84886 -21.8709 -62.5669 -16.21188 61.61138 134.30119 -57.95012 82.84909 21.87646 74.61395 7.00432 -33.09594 -54.66832 -18.57678 -2.25191 -3.92659 44.9045 -5.56532 -1.85412 -0.37675 -49.51578 -30.97142 11.21358
-0.27084 -0.67064 0.10345 52.05141 55.95016 -30.97537 24.61884 2.46935 -16.41637 -50.79268 7.69881 -2.11994 -62.5669 15.39364 -53.10687 134.30119 49.68949 82.84902 -21.87286 -62.5669 -16.21523 61.06164 134.30119 -59.42956 82.84921 21.87735 74.3463 7.07536 -33.32026 -54.50287 -18.58805 -2.25948 -3.93119 44.79968 -5.38887 -1.71435 -0.37553 -49.51572 -30.97633 11.25136
-0.27093 -0.67004 0.10361 51.86956 56.09744 -30.96185 24.5017 2.22457 -16.45021 -50.56958 7.60788 -2.11994 -62.56689 14.42489 -52.1822 134.30118 49.28906 82.8488 -21.87067 -62.5669 -16.21422 60.61526 134.30119 -61.01242 82.84924 21.87765 74.07764 7.12466 -33.60106 -54.34452 -18.59677 -2.27027 -3.93733 44.70996 -5.21329 -1.59194 -0.37442 -49.52943 -31.03879 11.30377
-0.27104 -0.66951 0.10374 51.69919 56.24475 -30.95485 24.37233 1.97458 -16.49049 -50.35024 7.50777 -2.11994 -62.56688 13.54279 -51.29373 134.30118 48.87998 82.84878 -21.86852 -62.5669 -16.21415 60.12254 134.30119 -62.49427 82.84922 21.87784 73.81308 7.18572 -33.8519 -54.18201 -18.60731 -2.27946 -3.94273 44.61654 -5.03735 -1.46689 -0.37325 -49.53663 -31.07367 11.34587
-0.27112 -0.6689 0.10388 51.54693 56.39962 -30.97248 24.22734 1.71968 -16.53821 -50.1363 7.41367 -2.11994 -62.56694 12.73555 -50.38766 134.30124 48.53099 82.8496 -21.88179 -62.56691 -16.21457 59.62617 134.30119 -64.21163 82.84925 21.87815 73.53523 7.23934 -34.1203 -54.02476 -18.61485 -2.28921 -3.94826 44.51099 -4.86053 -1.32118 -0.37212 -49.5447 -31.11376 11.40328
-0.27125 -0.66844 0.10401 51.34924 56.53783 -30.93243 24.12292 1.47865 -16.56559 -49.90883 7.31133 -2.11994 -62.56679 11.72174 -49.49856 134.30111 48.04687 82.84739 -21.85237 -62.56691 -16.21437 59.16385 134.30119 -65.46101 82.84927 21.8786 73.28414 7.30293 -34.36563 -53.85793 -18.62803 -2.29858 -3.95391 44.43392 -4.68618 -1.22117 -0.37094 -49.55428 -31.15693 11.43231
-0.27153 -0.6684 0.10408 51.03628 56.63176 -30.74509 24.1215 1.26925 -16.5465 -49.64545 7.18041 -2.11994 -62.56666 10.15884 -48.70642 134.30095 47.26388 82.84725 -21.79145 -62.56692 -16.2145 58.75139 134.30121 -65.38232 82.84934 21.88005 73.10586 7.40138 -34.53487 -53.66076 -18.65825 -2.30591 -3.95948 44.43062 -4.5166 -1.25406 -0.36952 -49.56481 -31.19513 11.37958
-0.27186 -0.66851 0.10413 50.67898 56.70898 -30.50004 24.15958 1.07398 -16.50661 -49.36927 7.04101 -2.11994 -62.56624 8.40319 -47.92888 134.30052 46.33451 82.84233 -21.67404 -62.56694 -16.21456 58.37308 134.30123 -64.83039 82.84943 21.8818 72.95464 7.51013 -34.67876 -53.45408 -18.69411 -2.3128 -3.96516 44.4555 -4.34996 -1.33034 -0.36806 -49.57638 -31.23445 11.2978
-0.27216 -0.66855 0.1042 50.34144 56.79352 -30.27848 24.17957 0.87433 -16.47269 -49.0999 6.90654 -2.11994 -62.56558 6.75847 -47.12179 134.29987 45.42167 82.83254 -21.52362 -62.56696 -16.21458 57.99134 134.30125 -64.50012 82.84951 21.8833 72.79137 7.61285 -34.83344 -53.25266 -18.72687 -2.31996 -3.9708 44.46805 -4.18318 -1.37935 -0.36667 -49.58743 -31.27301 11.22917
-0.27248 -0.6686 0.10424 50.00422 56.87917 -30.06758 24.20133 0.66636 -16.45266 -48.8257 6.76787 -2.11994 -62.56645 5.00523 -46.40449 134.30065 44.70871 82.85166 -21.6115 -62.56697 -16.21465 57.56202 134.30128 -64.14353 82.84961 21.88519 72.62639 7.72072 -34.99323 -53.04668 -18.76178 -2.3268 -3.97636 44.47911 -4.01111 -1.46039 -0.36509 -49.59918 -31.31465 11.16111
-0.27277 -0.66867 0.10432 49.65633 56.95843 -29.82096 24.22843 0.47912 -16.39925 -48.55895 6.63601 -2.11994 -62.5641 3.43766 -45.51017 134.29844 43.55841 82.81044 -21.20135 -62.56698 -16.21468 57.23874 134.3013 -63.73084 82.84967 21.88639 72.47223 7.82034 -35.13556 -52.84892 -18.79362 -2.33435 -3.98221 44.49979 -3.85108 -1.4854 -0.36389 -49.60952 -31.34935 11.08498
